<svg version="1.1" xmlns="http://www.w3.org/2000/svg" xmlns:xlink="http://www.w3.org/1999/xlink" width="62.53207" height="82.18159" viewBox="0,0,62.53207,82.18159"><g transform="translate(-289.44473,-139.98487)"><g stroke="none" stroke-miterlimit="10"><path d="M338.859,179.725c0,2.17 -0.471,5.836 -1.408,10.995c-0.293,1.877 -0.879,3.842 -1.76,5.894c-1.35,3.05 -3.65,5.748 -6.904,8.093c-3.255,2.345 -6.407,3.518 -9.456,3.518c-0.997,0 -1.906,-0.146 -2.727,-0.439c-4.457,-1.407 -7.916,-4.075 -10.379,-8.005c-0.471,-0.761 -1.086,-2.052 -1.848,-3.87c-0.821,-2.052 -1.275,-3.635 -1.363,-4.75c-0.088,-1.113 -0.308,-2.579 -0.66,-4.397v-6.51c0.234,-0.116 0.117,-0.292 -0.352,-0.527h0.528c0,-0.293 0.116,-0.85 0.352,-1.671c0.233,-0.821 0.352,-1.437 0.352,-1.848c0,-0.352 -0.088,-0.674 -0.264,-0.968c0.233,0 0.439,-0.088 0.615,-0.264c-0.059,-0.117 -0.206,-0.176 -0.439,-0.176c0.058,-0.058 0.161,-0.146 0.308,-0.264c0.146,-0.117 0.249,-0.205 0.309,-0.264c-0.06,-0.059 -0.132,-0.103 -0.221,-0.133c-0.088,-0.028 -0.162,-0.072 -0.22,-0.132c0.353,-0.938 0.674,-2.228 0.968,-3.87c0.233,-1.348 0.704,-3.195 1.407,-5.541c1.056,-3.4 3.46,-6.919 7.213,-10.556c1.056,-0.996 2.199,-1.612 3.431,-1.847c0.176,0 1.319,-0.059 3.431,-0.177c2.932,-0.116 5.687,0.499 8.268,1.848c2.992,1.525 5.336,3.812 7.037,6.861c0.881,1.583 1.701,3.724 2.463,6.421c0.881,2.99 1.32,5.571 1.32,7.74v4.839zM333.054,169.962c-0.35,-0.82 -0.76,-1.876 -1.227,-3.167c-0.586,-2.639 -2.325,-5.071 -5.217,-7.301c-2.893,-2.228 -5.566,-3.224 -8.021,-2.99c-1.11,0.118 -2.981,1.966 -5.612,5.542c-1.286,1.701 -2.571,5.102 -3.856,10.203c-1.169,4.75 -1.725,8.415 -1.665,10.995c0.116,3.284 0.292,5.571 0.526,6.86c0.408,2.405 1.285,4.604 2.629,6.598c1.286,1.759 2.28,2.902 2.981,3.431c2.629,1.877 5.112,2.814 7.451,2.814c0.525,0 1.022,-0.058 1.49,-0.176c1.11,-0.176 2.424,-0.908 3.944,-2.199c1.286,-1.173 2.25,-2.257 2.894,-3.255c0.876,-1.465 1.695,-3.664 2.455,-6.597c1.168,-4.28 1.754,-8.825 1.754,-13.634c0.002,-2.579 -0.174,-4.954 -0.526,-7.124z" fill="#ffffff" stroke-width="1"/><path d="M318.28568,139.98499c0.932,0 1.83423,0.1275 2.69019,0.36601l0.29261,0.0077l0.10064,0.1107c1.69174,0.5478 3.18608,1.53421 4.34889,2.82513l1.26822,0.28183l0.79624,0.10858l0.38455,0.15382l0.00059,0.00013l0.00106,0.00053l0.54653,0.21861l0.84145,0.60771l0.47641,0.10587l0.37309,0.18654l0.02674,0.02292l0.1154,0.04122l0.55963,0.37309l0.55265,0.60791l0.64653,0.27222l1.2703,0.95273l0.14714,0.09809l0.2219,0.07397l1.12686,0.71709l0.2485,0.08875l0.49413,0.10981l0.00717,0.00359l0.17533,0.01349l0.39789,0.13263l0.16579,0.03684l0.24922,0.12461l0.14483,0.03621l0.02399,-0.00654l0.03584,0.0215l0.07398,0.0185l0.02252,0.0394l0.11395,0.06837l0.26434,0.08811l0.20685,0.13163l0.17029,0.03784l0.37309,0.18654l0.54987,0.47132l0.63841,0.40626l0.5064,0.30384l0.57393,0.24165l0.00472,-0.00033l0.00474,0.00431l0.18251,0.07685l0.52413,0.39309l0.32869,0.21912l0.24545,0.27l0.03905,0.02485l0.00464,0.02321l1.03156,1.13472l1.45279,1.32071l1.49235,2.23853l0.21253,0.59509l0.41124,0.47978l0.55963,1.11927l0.09205,0.41423l0.24844,0.344l0.37309,0.93272l0.09294,0.68159l0.32371,0.60696l0.37309,1.49235v0.72597l0.2869,1.00416l0.01376,0.41279l0.17681,0.37326l0.18654,0.93272l-0.00787,0.16536l0.06601,0.15182l0.09344,0.56061l0.2175,0.76124l0.01376,0.41279l0.17681,0.37326l0.37309,1.86544l-0.04738,0.99489l0.24157,0.96628v0.33972l0.20727,0.75999l0.00749,0.35191l0.15068,0.3181l0.74618,3.73088l-0.02369,0.49742l0.16825,0.4687l0.17426,1.74262l0.17123,1.36987l-0.07604,0.62731l0.15326,0.61304v6.15596l-0.17457,0.69827l0.07406,0.71594l-0.18654,1.30581l-0.26119,0.64111l-0.02306,0.69189l-0.32731,1.1456l-0.14613,0.58453l-0.32371,0.60696l-0.09294,0.68159l-0.37309,0.93272l-0.77266,1.06983l-0.51211,1.21626l-0.18609,0.24811l-0.09282,0.16243l-0.11523,0.28807l-0.41187,0.57029l-0.19046,0.67719l-0.60847,1.06482l-0.24896,0.49792l-0.25518,0.29771l-0.11417,0.37511l-0.55963,0.93272l-0.87049,0.87049l-0.11716,0.19527l-0.14691,0.34892l-0.31219,0.41626l-0.05711,0.09518l-0.05711,0.05711l-0.13323,0.17763l-0.23685,0.19244l-0.13245,0.13245l-0.11687,0.07012l-0.61728,0.50154l-0.89655,1.10345l-0.74618,0.55963l-0.11013,0.04637l-0.07749,0.09096l-1.08405,0.77432l-0.28743,0.22994l-0.72763,0.72763l-0.02556,0.01533l-0.21736,0.32604l-0.73699,0.66999l-0.51244,0.85407l-0.18654,0.18654l-0.55963,0.93272l-0.19703,0.19703l-0.1542,0.24231l-0.11014,0.02203l-0.47135,0.47135l-0.85407,0.51244l-0.66999,0.73699l-1.11927,0.74618l-1.08624,0.38794l-0.94953,0.65485l-1.49235,0.55963l-0.18871,0.02157l-0.16025,0.10197l-1.6789,0.55963l-0.63004,0.04846l-0.57107,0.27051l-1.6321,0.32642l-0.70893,0.17723l-0.18863,0.07073l-0.02783,0.0487l-0.27864,0.06966l-0.24922,0.12461l-2.24301,0.49845l-0.54499,0.13625l-0.21305,0.20797l-0.54604,-0.0182l-0.92505,0.23126h-0.27864l-0.28038,0.06231l-0.09346,-0.06231h-0.28025l-1.35317,-0.33829l-1.39404,-0.04647l-1.01904,-0.29116l-3.06666,-0.68148l-0.12089,-0.06045h-0.13516l-0.74618,-0.18654l-0.34597,-0.18452l-0.39095,-0.03007l-0.55963,-0.18654l-0.60724,-0.38642l-0.70262,-0.15614l-0.74618,-0.37309l-0.48991,-0.41992l-0.43076,-0.1723l-0.32003,-0.23114l-0.06026,-0.02537l-0.37793,-0.08398l-0.74618,-0.37309l-0.39174,-0.33578l-0.16789,-0.03731l-0.37309,-0.18654l-0.02674,-0.02292l-0.1154,-0.04122l-0.55963,-0.37309l-0.07175,-0.07892l-0.30134,-0.10762l-0.41667,-0.27778l-0.10396,-0.02599l-0.08217,-0.00457l-0.61364,-0.71591l-0.03259,0.00069l-1.01994,-1.01994l-1.6238,-1.47618l-0.01233,-0.0185l-0.7986,-0.68451l-0.01503,-0.27057l-0.17464,-0.17464l-0.55963,-0.93272l-0.11417,-0.37511l-0.25518,-0.29771l-0.28121,-0.56242l-0.02774,-0.04162l-0.01734,-0.04855l-0.23334,-0.46668l-0.10981,-0.49413l-0.07,-0.196l-1.06187,-1.5928l-0.42192,-1.18137l-0.38839,-0.45313l-0.18654,-0.37309l-0.03784,-0.17029l-0.13163,-0.20685l-0.08932,-0.26797l-0.0817,-0.11312l-0.0755,-0.18876l-0.14738,-0.24563l-0.09941,-0.32663l-0.01925,-0.0175l-0.10869,-0.16303l-0.142,-0.16566l-0.09466,-0.18933l-0.02774,-0.04162l-0.01734,-0.04855l-0.23334,-0.46668l-0.10587,-0.47641l-0.60771,-0.84145l-0.37309,-0.93272l-0.125,-0.91666l-0.39604,-0.83609l-0.06445,-0.32223l-0.17621,-0.52864l-0.05878,-0.76419l-0.00422,-0.00612l-0.06966,-0.18576l-0.24444,-0.56222l-0.02689,-0.16133l-0.21864,-0.58304l-0.20303,-1.77653l-0.43368,-1.73471v-0.8522l-0.14548,-1.60024l0.07106,-0.45683l-0.11213,-0.44852v-3.17125l0.20986,-0.83945l-0.02332,-0.09327v-0.0937l-0.06231,-0.09346l0.06231,-0.28038v-0.27864l0.01772,-0.07086l-0.01007,-0.2114l0.18654,-0.93272l0.1789,-0.37767v-0.27279l0.24157,-0.96628l-0.04738,-0.99489l0.15492,-0.7746l0.02397,-0.14385v-2.34363l0.29857,-1.1943v-1.23106l0.18654,-0.74618l0.18452,-0.34597l0.03007,-0.39095l0.04647,-0.1394v-1.73502l0.38988,-1.55951l0.09524,-1.23815v-0.18733l0.02081,-0.08326l0.00723,-0.09403l0.0651,-0.19529l0.03569,-0.14274l0.09171,-0.45856l-0.04552,-0.44006l0.18654,-1.30581l0.19807,-0.48617v-0.52497l0.18654,-0.74618l0.15098,-0.28309l0.06361,-0.82692l0.37309,-1.11927l0.30327,-0.47657l0.06047,-0.24188l0.00754,-0.00431l0.0018,-0.02341l0.13263,-0.39789l0.03684,-0.16579l0.37309,-0.74618l0.08394,-0.09794l0.1026,-0.4617l1.30581,-2.61162l0.33578,-0.39174l0.03731,-0.16789l0.23334,-0.46668l0.01734,-0.04855l0.02774,-0.04162l0.09466,-0.18933l0.142,-0.16566l0.10869,-0.16303l0.14065,-0.12787l0.43106,-0.50291l0.17446,-0.48849l0.37309,-0.55963l0.20752,-0.18865l0.09819,-0.21424l0.00324,-0.0146l0.04137,-0.08274l0.34804,-0.75936l0.08437,-0.10547l0.2724,-0.54479l0.25518,-0.29771l0.11417,-0.37511l0.36204,-0.6034l0.57443,-1.14885l2.35679,-2.74959l0.21702,-0.58722l0.45641,-0.19844l0.32388,-0.37787l0.62508,-0.03473l3.3211,-1.44396l0.6202,-0.10337l1.46835,-0.40046l2.7273,-0.80215l1.15176,-0.43191l0.70619,-0.08071l0.63574,-0.31787l1.46835,-0.3263c0.76274,-0.1862 1.55977,-0.28492 2.37985,-0.28492zM315.44257,161.24476l-0.47069,0.54914l-0.44325,0.96709l-0.24912,0.3114l-0.17179,0.48101l-0.37309,0.55963l-0.38206,0.34733l-0.07613,0.08881l-0.03731,0.16789l-0.23334,0.46668l-0.01734,0.04855l-0.02774,0.04162l-1.02738,2.05477l-0.03014,0.03517l-0.11956,0.35867l-0.01632,0.07344l0.00198,0.01914l-0.01153,0.08068v0.18429l-0.06143,0.24571l-0.01308,0.09159v0.0355l-0.01183,0.04733l-0.08867,0.6207l-0.13902,0.34122l0.04533,0.9519l-0.18654,0.93272l-0.10438,0.22036v0.24383l-0.07451,0.29805v0.63439l-0.18654,0.74618v0.0937l0.06231,0.09346l-0.06231,0.28038v0.27864l-0.11203,0.44812v0.48488l-0.18654,0.74618l-0.14039,0.26324l-0.12066,0.48266v2.98471l-0.20271,0.81085l0.06665,0.83314l-0.18654,1.11927l-0.04446,0.10227l-0.00602,0.02709v0.27864l-0.12907,0.51628l-0.06512,0.32561l-0.03448,0.07278l-0.32861,1.31444l-0.02416,0.10872l0.02181,0.08723v2.71764l0.14548,1.60024l-0.03343,0.21488l0.10839,0.94839l0.38968,0.89626l0.05755,0.34533l0.12497,0.37492l0.03999,0.51987l0.14011,0.35027l0.21006,0.24507l0.20134,0.40267l0.36204,0.6034l0.23576,0.77463l0.47408,0.65642l0.21861,0.54653l0.00053,0.00106l0.00013,0.00059l0.14021,0.35052l0.5417,0.81255l0.43049,1.20536l0.31569,0.47354l0.0371,0.10389l0.38305,0.60193l0.06874,0.20622l0.50084,0.20033l1.06983,0.77266l0.01179,0.00496l0.0544,0.01813l0.24597,0.06149l2.34204,0.52045l0.25897,-0.0296l0.51076,-0.27241l1.49235,-0.37309h0.24383l0.22036,-0.10438l1.25495,-0.25099l0.47153,-0.15718l0.42195,-0.63293l0.0085,-0.15305l0.7986,-0.68451l0.01233,-0.0185l0.73699,-0.66999l0.51244,-0.85407l1.11927,-1.11927l0.48285,-0.28971l0.34126,-0.44791l0.93272,-0.74618l0.25364,-0.11625l0.18093,-0.2124l0.88068,-0.62906l0.0914,-0.18281l0.18491,-0.21573l0.07693,-0.27352l0.4017,-0.70298l0.11523,-0.28807l0.41187,-0.57029l0.19046,-0.67719l0.74618,-1.30581l0.18589,-0.19398l0.00056,-0.01692l0.17487,-0.61205v-4.78574l-0.10932,-0.87458l0.01526,-0.12592l-0.04286,-0.11939l-0.13788,-1.37885l-0.58273,-2.91363l-0.46901,-1.7197l-0.02841,-1.33538l-0.32395,-1.2958v-0.6887l-0.09952,-0.49759l-0.2619,-0.91664l-0.01918,-0.57532l-0.22952,-0.5279l-0.16004,-0.96021l-0.07554,-0.37772l-0.2619,-0.91664l-0.03223,-0.96686l-0.05396,-0.10117l-0.20012,-0.8005l-0.07011,-0.14022l-0.06595,-0.09892l-0.40395,-0.08977l-0.44771,-0.22385l-0.67156,-0.14924l-0.24922,-0.12461l-0.27864,-0.06966l-0.08786,-0.15375l-0.12641,-0.04214l-0.60193,-0.38305l-0.10389,-0.0371l-0.19154,-0.1277l-0.03535,-0.01178l-0.60724,-0.38642l-0.70262,-0.15614l-0.37309,-0.18654l-0.47978,-0.41124l-0.59509,-0.21253l-0.55963,-0.37309l-0.19113,-0.21024l-0.26187,-0.11026l-1.49235,-1.11927l-0.10892,-0.13406l-0.10755,-0.07767l-0.07671,-0.0274l-0.06667,-0.04445l-0.35081,-0.07796l-0.37309,-0.18654l-1.38514,-1.18726z" fill="#000000" stroke-width="0.5"/></g></g></svg>