<svg version="1.1" xmlns="http://www.w3.org/2000/svg" xmlns:xlink="http://www.w3.org/1999/xlink" width="65.08718" height="80.89115" viewBox="0,0,65.08718,80.89115"><g transform="translate(-290.56396,-137.22952)"><g fill="#000000" stroke="none" stroke-width="0.5" stroke-miterlimit="10"><path d="M299.15835,151.20469c13.5207,-12.71419 26.92582,-21.14374 43.27,-5.42238c3.56338,3.42759 8.70139,5.90587 11.28315,10.2088c6.19797,10.32995 -3.72372,24.84756 -11.9695,30.35439c-0.06252,0.04175 -0.14811,0.03892 -0.21063,0.08067c-4.16744,2.78266 -8.50277,5.06097 -11.89267,8.79353c-0.1773,0.19522 -1.55703,1.82386 -1.49379,1.84187c2.17284,0.61871 6.49305,-1.28982 8.3854,0.88289c3.96168,4.54859 6.82552,14.26686 0,17.5c-8.82225,4.17896 -41.45925,5.24035 -36.73494,-10.28238c3.21197,-10.55363 12.20841,-21.56591 20.51277,-28.61717c4.30119,-3.65215 9.65206,-5.56023 13.54054,-9.81553c0.10505,-0.11496 0.90529,-1.57223 0.90404,-1.57391c-11.83055,-15.8986 -17.64508,-2.96731 -26.11911,4.35442c-1.81968,2.48163 -4.7565,4.09286 -8.06965,4.09286c-5.52285,0 -10,-4.47715 -10,-10c0,-3.31831 1.61625,-6.25912 4.10447,-8.07815c1.36754,-1.48041 2.9346,-2.85735 4.48991,-4.3199z"/></g></g></svg>