<svg version="1.1" xmlns="http://www.w3.org/2000/svg" xmlns:xlink="http://www.w3.org/1999/xlink" width="54.82371" height="65.88988" viewBox="0,0,54.82371,65.88988"><g transform="translate(-292.30295,-147.07367)"><g fill="#000000" stroke="none" stroke-width="0.5" stroke-miterlimit="10"><path d="M334.87054,153.56603c0.17428,0.30983 0.38298,0.81769 0.61011,1.47261c0.09767,0.25906 0.1849,0.52323 0.26117,0.79202c1.31567,4.176 3.01068,12.24215 2.41049,15.65905c1.72096,0.19841 3.15412,0.63758 3.97434,1.4578c6.66667,6.66667 6.66667,10.83333 0,17.5c-0.93747,0.93747 -2.33985,1.40105 -3.97848,1.61035c0.08244,9.77141 -2.70429,20.90569 -10.53528,20.90569c-6.88483,0 -9.84169,-9.49341 -10.64648,-18.41691c-39.02786,8.69874 -25.4051,-35.21529 -2.55342,-44.83705l0.19113,-0.21024c0.18466,-0.12311 0.3728,-0.23927 0.56406,-0.34861c1.68848,-1.30238 3.80488,-2.07707 6.10221,-2.07707c1.93494,0 3.74153,0.54956 5.27219,1.5011c3.08146,0.12794 5.8028,1.65032 7.54958,3.95269c0.29804,0.30786 0.56044,0.65113 0.77838,1.03856zM317.22915,173.39161c-0.16233,0.85039 1.71811,-0.21515 2.57825,-0.31348c0.06947,-0.00794 0.13884,-0.01614 0.20812,-0.02456c-0.4312,-0.76224 -0.82885,-1.57455 -1.19176,-2.41875c-0.82244,0.85291 -1.4046,1.76138 -1.59461,2.75679z"/></g></g></svg>