<svg version="1.1" xmlns="http://www.w3.org/2000/svg" xmlns:xlink="http://www.w3.org/1999/xlink" width="23.17478" height="40.12031" viewBox="0,0,23.17478,40.12031"><g transform="translate(-308.28642,-166.14807)"><g stroke="none" stroke-width="0.5" stroke-miterlimit="10"><path d="M319.7894,169.66745c1.66793,-0.2713 2.75842,-0.74189 4.4936,-0.20995c3.73061,1.14364 8.29036,12.52561 5.6276,15.63217c-4.42613,5.16381 -15.17266,2.04542 -19.36607,-1.94908c-1.08593,-1.03442 1.39861,-8.65622 2.31548,-10.09702c-0.10986,-0.28156 -0.17014,-0.58792 -0.17014,-0.90837c0,-0.29768 0.05203,-0.5832 0.14748,-0.84798c0.16622,-0.51623 0.45843,-0.88225 0.8351,-1.13901c0.42077,-0.32182 0.94677,-0.51302 1.51741,-0.51302c0.01296,0 0.02591,0.0001 0.03882,0.0003c1.56576,-0.18468 3.47427,0.20868 4.56072,0.03196z" fill="#ffffff"/><path d="M316.75457,187.31172c0.19726,-0.03763 0.39547,-0.04336 0.5943,-0.0275c0.23908,0.00942 0.46954,0.05242 0.68678,0.12441c0.658,0.17073 1.31895,0.44726 1.97166,0.46185c3.36106,0.07512 7.26214,0.10219 7.20792,4.79662c-0.03746,3.24324 -10.80533,3.83152 -12.39303,2.24382c-0.71848,-0.71848 -2.63956,-3.71511 0.03902,-4.38476c-0.07314,-0.23499 -0.11255,-0.48485 -0.11255,-0.74392c0,-1.1033 0.7147,-2.03968 1.70639,-2.37141c0.09274,-0.04492 0.19217,-0.07864 0.2995,-0.09912z" fill="#4edfff"/><path d="M321.34033,206.26838c-1.25,0 -1.15196,-1.25 -1.15196,-1.25l-0.08104,-0.93087c-0.12246,-0.74797 -0.19981,-5.91702 -0.22997,-6.67517c-0.46755,0.06483 -0.93911,0.11707 -1.408,0.14905c0.88843,2.2041 0.51095,1.15368 0.11109,3.55376l0.01701,0.47631c0,0 0,1.25 -1.25,1.25c-0.12351,0 -0.23481,-0.0122 -0.33511,-0.0342c-0.91489,-0.20061 -0.91489,-1.2158 -0.91489,-1.2158l0.017,-0.88732c0.31474,-1.88769 0.9433,-0.96825 -0.16418,-2.63623c0,0 -0.16047,-0.26746 -0.1875,-0.61534c-1.335,-0.243 -2.51803,-0.82503 -3.35205,-1.97289c-2.24138,-3.0848 1.62695,-5.53681 0.47102,-8.56869c0,0 -0.02061,-0.06182 -0.0383,-0.16194c-1.8099,-1.08642 -3.64096,-2.41156 -4.26705,-4.11964c-0.73471,-2.00441 0.09069,-3.29825 0.6651,-5.13351c0.5488,-1.75347 0.6253,-3.96329 1.43323,-5.62588c1.67425,-3.44536 5.82692,-4.58221 9.38932,-4.44752c-0.00779,-0.26939 0.0863,-0.57549 0.39239,-0.88159c0.88388,-0.88388 1.76776,0 1.76776,0l-0.01349,0.03929c5.8131,3.48786 9.24942,8.74911 9.24325,15.61732c-0.00089,0.99256 0.10483,3.0956 -0.46322,3.9127c-0.35596,0.51203 -3.46212,1.80076 -3.91547,2.00229c-0.30616,0.1361 -0.61104,0.2693 -0.91473,0.39797c0.25167,0.41923 0.4614,0.86324 0.62086,1.31967c0.87565,1.3414 2.16441,3.94238 1.02752,5.59826c-0.5517,0.80356 -2.61073,1.02847 -3.53583,1.18392c-0.57693,0.09695 -1.22228,0.2289 -1.90893,0.36465c0.00988,0.76592 0.08079,5.94484 0.20915,6.69953l0.01701,1.34186c0,0 0,1.15196 -1.25,1.15196zM328.215,177.33409c0,-0.17143 0.03451,-0.3348 0.09696,-0.48354c-1.09015,-2.93556 -3.43625,-5.41404 -6.00504,-7.22621c-0.41956,0.50493 -1.14336,0.40153 -1.14336,0.40153c-2.63384,-0.38183 -6.98739,-0.0155 -8.24854,2.95371c-0.6838,1.60991 -0.77533,3.62086 -1.29404,5.28321c-0.38398,1.23059 -1.17934,2.15936 -0.69854,3.50285c0.67443,1.88459 4.27676,3.42469 5.90422,4.4056c1.82602,1.49887 3.65206,1.57841 5.51761,1.09284c0.02849,-0.22811 0.13738,-0.47563 0.38491,-0.72315c0.80018,-0.80018 1.60037,-0.15155 1.74474,-0.02153c0.52426,-0.21796 1.05266,-0.4544 1.58602,-0.6914c0.95442,-0.4241 2.29644,-0.32912 2.90272,-1.17953c0.41679,-0.58462 -0.01107,-3.62759 -0.00868,-4.26911c0.00258,-0.69144 -0.06933,-1.3658 -0.20579,-2.02108c-0.32241,-0.22607 -0.53317,-0.6005 -0.53317,-1.02417zM319.49318,192.77722c0.26135,-1.15258 -1.93469,-2.13882 -1.45725,-3.15949c-0.80165,-0.26612 -1.60053,-0.68332 -2.39855,-1.28629c-0.01853,0.81728 -0.161,1.63627 -0.40045,2.39945c-0.17557,0.55955 -1.54266,2.35524 -0.77806,3.18448c0.64813,0.70292 1.50698,1.03173 2.45112,1.14323c-0.01427,-0.01491 -0.02791,-0.03005 -0.04094,-0.0454c0.39999,0.06026 0.77826,-0.11823 1.18238,-0.22387c0.28529,0.06906 0.5221,0.13542 0.76599,0.04893c-0.03906,0.0684 -0.08716,0.14079 -0.14568,0.21096c1.37146,-0.1376 2.75429,-0.49686 3.82673,-0.6756c0.21093,-0.03516 3.23729,-0.32861 3.28235,-0.40699c0.37122,-0.64573 -1.00927,-2.69241 -1.2452,-3.03811c-0.16865,-0.53616 -0.41142,-1.07396 -0.75371,-1.52471c-1.09473,0.34328 -2.17658,0.56743 -3.24999,0.59163c-0.55668,1.11633 2.14978,2.09167 1.88264,3.3241l-0.13959,0.55921c-0.11011,0.19704 -0.23672,0.33518 -0.39028,0.31305c0,0 -0.35548,0.06268 -0.46722,0.08899c-0.33593,-0.06642 -0.72115,-0.08846 -0.9012,-0.089c0,0 -0.53894,-0.62206 -0.57248,-0.90205z" fill="#000000"/><path d="M317.07423,194.54706c-0.14511,-0.00725 -0.28053,-0.04811 -0.40146,-0.14224c0.03235,0.01528 0.06851,0.02383 0.10666,0.02383c0.03118,0 0.06103,-0.00571 0.08856,-0.01614c0.00808,0.00626 0.01627,0.01251 0.0246,0.01877c0,0 0.07408,0.05556 0.16589,0.05397c0.00303,0.02309 0.00848,0.0436 0.01576,0.06181z" fill="#000000"/><path d="M316.61001,194.36871c-0.00023,-0.00228 -0.00045,-0.00456 -0.00067,-0.00683c0.00532,0.00494 0.01085,0.00965 0.01658,0.01411c-0.00493,-0.00242 -0.01025,-0.00487 -0.01591,-0.00728z" fill="#000000"/><path d="M318.92928,179.90552c0,-0.69036 0.55964,-1.25 1.25,-1.25c0.69036,0 1.25,0.55964 1.25,1.25c0,0.69036 -0.55964,1.25 -1.25,1.25c-0.69036,0 -1.25,-0.55964 -1.25,-1.25z" fill="#000000"/><path d="M327.07013,177.4357l0.01586,0.45148c0.03977,1.39464 -0.25286,5.3581 -2.8613,3.87357c-0.70794,-0.4029 -1.10101,-2.95675 -1.39965,-3.75776c0,0 -0.26201,-0.70275 0.44074,-0.96475c0.70275,-0.26201 0.96475,0.44074 0.96475,0.44074c0.58821,1.57765 1.01002,4.68798 1.39125,1.26411c0.02966,-0.26635 -0.02324,-0.53549 -0.03486,-0.80323l-0.01586,-0.45148c0,0 -0.02634,-0.74953 0.7232,-0.77587c0.74953,-0.02634 0.77587,0.7232 0.77587,0.7232z" fill="#000000"/></g></g></svg>