<svg version="1.1" xmlns="http://www.w3.org/2000/svg" xmlns:xlink="http://www.w3.org/1999/xlink" width="55.34426" height="79.31167" viewBox="0,0,55.34426,79.31167"><g transform="translate(-294.29486,-141.21477)"><g fill="#000000" stroke="none" stroke-width="0.5" stroke-miterlimit="10"><path d="M299.29486,201.67533c0.13321,-0.07493 0.34014,-0.15495 0.61401,-0.23935c1.32425,-0.64733 2.81269,-1.01065 4.38599,-1.01065c0.17958,0 0.35805,0.00473 0.53529,0.01408c1.73032,-0.28071 3.76582,-0.5749 5.98043,-0.86933c-0.05878,-9.87283 0.52546,-22.68134 0.27325,-25.08462c-0.33088,0.03306 -0.66652,0.04998 -1.00611,0.04998c-4.05253,0 -7.54202,-2.41061 -9.11278,-5.87613c-0.5699,-1.25734 -0.88722,-2.65355 -0.88722,-4.12387c0,-1.40195 0.2885,-2.73652 0.80936,-3.94758c2.78586,-9.91263 11.39486,-22.07693 20.6695,-18.84037c3.31672,1.15743 3.85099,0.38592 5.66563,3.2375c5.14391,8.08329 4.82539,38.97501 4.28778,52.34131c4.97227,-0.41851 8.98752,-0.6412 10.57778,-0.51398c3.34858,0.26789 5.38692,4.11686 7.51041,6.71984c0.20784,0.25477 -0.43888,2.23369 -0.52784,2.63922c-0.52758,2.40492 -0.59509,4.93345 -1.44858,7.2429c-1.39854,3.7843 -30.95747,7.80616 -43.22829,7.01057c-0.03283,0.00032 -0.0657,0.00048 -0.09861,0.00048c-0.73503,0 -1.45153,-0.0793 -2.14143,-0.22982c-4.49383,-0.98042 -7.85857,-4.98236 -7.85857,-9.77018c0,-3.25429 1.55449,-6.14551 3.96144,-7.97162c0.30786,-0.29804 0.65113,-0.56044 1.03856,-0.77838z"/></g></g></svg>