<svg version="1.1" xmlns="http://www.w3.org/2000/svg" xmlns:xlink="http://www.w3.org/1999/xlink" width="51.21768" height="68.11215" viewBox="0,0,51.21768,68.11215"><g transform="translate(-295.04106,-146.65246)"><g fill="#000000" stroke="none" stroke-width="0.5" stroke-miterlimit="10"><path d="M304.0257,146.67404c0.43071,-0.03967 0.92317,-0.02297 1.46067,0.03628c1.01945,0.04467 1.99928,0.24198 2.91718,0.56964c2.8453,0.71717 6.04203,1.82988 8.12131,2.12341c8.98917,1.26897 27.76717,-2.87692 29.5512,9.61131c1.94532,13.61724 -12.1928,36.64061 -16.42102,49.91337c-1.40132,4.39888 -11.20801,7.52193 -13.60295,4.84522c-8.93093,-9.98163 -2.82946,-19.33063 1.87037,-29.8323c0.34078,-0.76147 0.73143,-1.49991 1.11927,-2.23853c0.47549,-0.90553 4.66112,-11.48416 4.10975,-11.6883c-4.14691,-1.53538 -25.56289,-0.7292 -26.24865,-7.5011c-1.17201,-1.63805 -1.86177,-3.6447 -1.86177,-5.81246c0,-4.75232 3.31503,-8.73038 7.7588,-9.74788c0.38345,-0.14299 0.79071,-0.23858 1.22585,-0.27866z"/></g></g></svg>