<svg version="1.1" xmlns="http://www.w3.org/2000/svg" xmlns:xlink="http://www.w3.org/1999/xlink" width="23.38408" height="33.00301" viewBox="0,0,23.38408,33.00301"><g transform="translate(-308.66587,-170.63302)"><g stroke="none" stroke-width="0.5" stroke-miterlimit="10"><g><path d="M319.16441,173.07656c1.66793,-0.2713 2.75842,-0.74189 4.4936,-0.20995c3.73061,1.14364 8.29036,12.52561 5.6276,15.63217c-4.42613,5.16381 -15.17266,2.04542 -19.36607,-1.94908c-1.08593,-1.03442 1.39861,-8.65622 2.31548,-10.09702c-0.10986,-0.28156 -0.17014,-0.58792 -0.17014,-0.90837c0,-0.29768 0.05203,-0.5832 0.14748,-0.84798c0.16622,-0.51623 0.45843,-0.88225 0.8351,-1.13901c0.42077,-0.32182 0.94677,-0.51302 1.51741,-0.51302c0.01296,0 0.02591,0.0001 0.03882,0.0003c1.56576,-0.18468 3.47427,0.20868 4.56072,0.03196z" fill="#ffffff"/><path d="M316.12958,190.72083c0.19726,-0.03763 0.39547,-0.04336 0.5943,-0.0275c0.23908,0.00942 0.46954,0.05242 0.68678,0.12441c0.658,0.17073 1.31895,0.44726 1.97166,0.46185c3.36106,0.07512 7.26214,0.10219 7.20792,4.79662c-0.03746,3.24324 -10.80533,3.83152 -12.39303,2.24382c-0.71848,-0.71848 -2.63956,-3.71511 0.03902,-4.38476c-0.07314,-0.23499 -0.11255,-0.48485 -0.11255,-0.74392c0,-1.1033 0.7147,-2.03968 1.70639,-2.37141c0.09274,-0.04492 0.19217,-0.07864 0.2995,-0.09912z" fill="#4edfff"/></g><path d="M308.7048,194.75057c-0.24254,-0.97014 0.72761,-1.21268 0.72761,-1.21268l0.47942,-0.11962c1.42257,-0.3795 2.23131,-0.88199 3.43966,-1.72947c0,0 0.4044,-0.28308 0.84383,-0.16734c0.06253,-0.16945 0.11131,-0.31844 0.14195,-0.4416c0,0 0.01059,-0.04237 0.03574,-0.10929c-0.22092,-0.1386 -0.44259,-0.28471 -0.66489,-0.4385c-8.62098,-6.03608 -5.63503,-19.61847 5.34183,-19.89904c0,0 1.06401,0 1.2287,0.98167l0.42738,0.05034c1.76279,0.41576 3.09887,1.0536 4.67102,1.9338c7.12176,5.82291 5.89331,14.16132 0.9572,17.72747c0.19083,0.26099 0.38368,0.53854 0.5704,0.82782c1.49457,0.8047 2.99358,1.49837 4.55144,2.1901l0.59386,1.16381c0,0 0,1 -1,1c-0.53853,0 -0.78705,-0.29002 -0.90173,-0.55768c-0.64748,-0.29084 -1.2865,-0.58413 -1.92032,-0.88709c0.2449,1.12064 0.09059,2.19761 -0.82883,3.01276c0.47021,0.79304 0.87455,1.58357 1.20737,2.06825l0.18579,1.23973c0,0 0.12403,0.99228 -0.86824,1.11631c-0.99228,0.12403 -1.11631,-0.86824 -1.11631,-0.86824l-0.06421,-0.76027c-0.14285,-0.19059 -0.78336,-1.52354 -1.35624,-2.38699c-0.20123,-0.00843 -0.39976,-0.00856 -0.58909,0.01715c-0.13025,0.01768 -0.25985,0.03472 -0.38888,0.05113c-0.03917,0.19396 -0.24553,0.93008 -1.10832,0.82223c-0.50703,-0.06338 -0.72259,-0.35345 -0.81217,-0.622c-1.08853,0.08762 -2.17212,0.12972 -3.31379,0.12972c-0.30737,0 -0.65743,0.01772 -1.03349,0.03861c-0.06411,0.26868 -0.24823,0.56259 -0.72398,0.68153c-0.76268,0.19067 -1.07567,-0.36814 -1.17466,-0.61586c-0.61638,-0.00732 -1.23226,-0.05767 -1.79351,-0.19815c-0.46814,1.09752 -0.89849,2.55753 -1.19227,3.13364l-0.08981,0.83425c0,0 -0.12403,0.99228 -1.11631,0.86824c-0.99228,-0.12403 -0.86824,-1.11631 -0.86824,-1.11631l0.16019,-1.16575c0.37428,-0.76208 0.90035,-2.12855 1.54674,-3.38462c-0.21317,-0.21895 -0.39074,-0.48228 -0.52314,-0.79832c-0.21639,-0.51649 0.1752,-1.68484 0.66834,-2.88844c-0.78852,0.452 -1.58131,0.79388 -2.59673,1.07593l-0.52058,0.13038c0,0 -0.97014,0.24254 -1.21268,-0.72761zM323.23157,189.21797c0.76235,-0.50824 1.33844,-0.08515 1.59173,0.17703c3.87809,-2.61334 4.83021,-9.0759 -0.85046,-13.72777c-1.3017,-0.71623 -2.36892,-1.23811 -3.82898,-1.5662l-0.98197,-0.10064c0,0 -0.8752,-0.09724 -1.07482,-0.86308c-8.11473,0.43626 -9.02584,11.09132 -2.94531,15.34669c2.75361,1.9553 5.37751,2.40264 7.52734,1.86784c-0.04542,-0.34786 0.03885,-0.7848 0.56245,-1.13387zM315.81223,194.77678c-0.05971,0.13391 -0.15449,0.25648 -0.2638,0.37349c0.56857,-0.03704 1.17215,0.31373 1.8023,1.24412c0.06948,-0.00729 0.13613,-0.01135 0.19922,-0.01135c1.79614,0 3.6831,0.04139 5.51216,0.00185c1.03763,-1.20993 1.97434,-1.05432 2.79506,-0.34072c-0.03075,-0.33357 -0.50409,-0.98279 -0.5476,-1.38135c-0.11883,-1.08851 -0.52282,-1.60166 -1.10287,-2.19437c-2.17025,0.8137 -4.76967,0.8335 -7.55884,-0.31647c-0.2351,0.96784 -0.37465,1.591 -0.83563,2.6248z" fill="#000000"/><path d="M313.17494,182.75804c0,-0.55229 0.44772,-1 1,-1c0.55228,0 1,0.44771 1,1c0,0.55229 -0.44772,1 -1,1c-0.55228,0 -1,-0.44771 -1,-1z" fill="#000000"/><path d="M324.42495,181.88303c0,-0.55228 0.44772,-1 1,-1c0.55228,0 1,0.44772 1,1c0,0.55228 -0.44772,1 -1,1c-0.55228,0 -1,-0.44772 -1,-1z" fill="#000000"/><path d="M321.62216,184.15246c-0.89443,0.44721 -1.34164,-0.44721 -1.34164,-0.44721l-0.20072,-0.45468c-0.44777,-1.79109 -0.45165,-2.63824 -0.40486,-0.24254c0,0 0,1 -1,1c-1,0 -1,-1 -1,-1c0.01587,-1.16575 0.27775,-3.77801 2.125,-3.75c1.76618,0.02678 1.93503,2.36703 2.22014,3.50746l0.04928,0.04532c0,0 0.44721,0.89443 -0.44721,1.34164z" fill="#000000"/></g></g></svg>