<svg version="1.1" xmlns="http://www.w3.org/2000/svg" xmlns:xlink="http://www.w3.org/1999/xlink" width="48.41701" height="59.29892" viewBox="0,0,48.41701,59.29892"><g transform="translate(-296.84421,-152.04804)"><g fill="#000000" stroke="none" stroke-width="0.5" stroke-miterlimit="10"><path d="M305.86061,201.28466c0,-2.00516 0.59017,-3.87248 1.60628,-5.43774l0.00847,-0.15243l0.22767,-0.19515c0.73018,-1.02773 1.64972,-1.91153 2.70773,-2.60053l-0.61861,-0.23198l-0.0347,0.01735l-0.55467,-0.1981l-0.61768,-0.15442l-0.37561,-0.20033l-0.57336,-0.20477l-0.6517,-0.16293l-0.15261,-0.01174l-0.1519,0.04143l-0.24629,-0.14777l-0.23537,-0.07846l-0.74742,-0.18686l-0.1681,-0.29417l-0.3789,-0.13532l-0.55963,-0.37309l-0.37152,-0.40867l-0.09667,-0.058l-0.5077,-0.02821l-0.48779,-0.56909l-0.62002,-0.37201l-0.19703,-0.19703l-0.24231,-0.1542l-0.03968,-0.19842l-0.17388,-0.2898l-0.1449,-0.1449l-0.34332,-0.06866l-0.8071,-1.26831l-0.10376,-0.10376l-0.19396,-0.32327l-1.18922,-1.30814l0.02527,-0.36635l-0.51529,-0.60117l-0.08129,-0.16258l-0.09752,-0.05573l-0.06966,-0.27864l-0.12461,-0.24922l-0.14072,-0.63325l-0.26464,-0.44106l0.09181,-0.33665l-0.1849,-0.83206l-0.55728,-2.22912v-0.27864l-0.06231,-0.28038l0.06231,-0.09346v-2.70532l0.20986,-0.83945l-0.02332,-0.09327v-0.55963l0.02518,-0.10071l-0.01753,-0.3681l0.01448,-0.07242l-0.07607,-0.15215l0.24205,-0.67775l0.00608,-0.0304l0.01942,-0.041l0.49006,-1.37218l0.54632,-2.1853l0.1671,-0.09549l0.04431,-0.11077l0.19069,-0.26403l0.0274,-0.07671l0.29425,-0.44137l0.1975,-0.64894l0.55963,-0.93272l0.06611,-0.06611l0.02884,-0.08893l0.93272,-1.49235l0.22704,-0.21894l0.1156,-0.29346l0.93272,-1.30581l0.09096,-0.07749l0.04637,-0.11013l1.11927,-1.49235l0.12448,-0.10114l0.06683,-0.14581l0.74618,-0.93272l0.88639,-0.67535l0.67535,-0.88639l0.93272,-0.74618l0.61985,-0.2841l0.48214,-0.48214l0.72867,-0.4372l0.92127,-0.61418l1.08624,-0.38794l0.94953,-0.65485l1.17455,-0.44046l1.743,-0.79227l0.73953,-0.13583l0.65129,-0.37574l1.30581,-0.37309l0.42554,-0.01418l0.83873,-0.18638l2.22912,-0.55728h0.27864l0.28038,-0.06231l0.09346,0.06231h7.18238l1.73471,0.43368l1.32249,0.15114l0.05824,-0.02519l0.1038,0.0437l0.29199,0.03337l1.49235,0.55963l0.33624,0.23189l1.52562,0.3814l0.24752,0.43317l0.75248,0.31683l0.89051,0.66788l0.0415,-0.00286l0.18162,0.16511l0.4564,0.27384l1.55175,1.55175l0.02555,0.02323l0.29114,0.04062l0.24144,0.3343l0.18932,0.11359l0.37309,0.37309l0.17667,0.29444l0.32659,0.2969l0.29524,0.44285l0.17356,0.17356l-0.00424,0.19933l0.15897,0.44511l1.08692,1.50496l0.37309,0.93272l0.00378,0.02773l0.06108,0.1018l-0.03147,0.11538l0.03278,0.24039l0.02705,0.03559l0.55963,1.30581l0.12893,0.79938l0.38104,0.71445l0.0934,0.3736l0.0651,0.19529l0.00723,0.09403l0.02081,0.08326v0.18733l0.02042,0.26542l0.27051,0.57107l0.18654,0.93272l-0.04738,0.99489l0.24157,0.96628v4.66361l-0.29857,1.1943v1.23106l-0.31537,1.2615l-0.27199,1.35993l-0.04679,0.3275v8.0569l-0.20986,0.83945l0.02332,0.09327v0.55963l-0.02518,0.10071l0.01753,0.3681l-0.18654,0.93272l-0.10438,0.22036v0.80347l-0.08968,0.35874l-0.11611,0.69666l0.05414,0.14519l-1.10263,2.28403l-1.01127,2.32592l-0.14535,0.05372l-0.8501,1.02012l-1.42989,1.78736l-0.75294,0.57367l-0.54783,0.77195l-1.30581,1.11927l-0.21809,0.10905l-0.15042,0.19191l-1.6789,1.30581l-0.91104,0.40255l-0.75623,0.6482l-1.49235,0.74618l-0.22728,0.05051l-0.18347,0.14334l-1.6789,0.74618l-0.69927,0.12237l-0.6149,0.35475l-2.61162,0.74618l-0.41279,0.01376l-0.37326,0.17681l-3.1204,0.62408l-0.52864,0.17621l-0.61086,0.04699c-0.16664,0.08217 -0.33591,0.15984 -0.50763,0.23285l-0.08262,0.03914l-0.02088,0.00418c-1.17311,0.48316 -2.4583,0.74965 -3.80573,0.74965c-0.08805,0 -0.17584,-0.00114 -0.26334,-0.0034l-0.29568,0.06571l-0.12834,-0.08556c-5.20223,-0.35315 -9.31264,-4.68493 -9.31264,-9.97675zM324.72274,176.84892l-0.01351,-0.28381l0.37309,-1.86544l0.10438,-0.22036v-0.24383l0.07451,-0.29805v-1.82704h-2.59027l-0.55054,0.1573l-1.37558,0.62526l-0.34121,0.06267l-0.28559,0.19696l-0.41445,0.15542l-0.1614,0.1076l-0.22963,0.08201l-0.17242,0.17242l-0.01614,0.00968l-0.35318,0.47091l4.88797,1.22199l0.97225,1.70144z"/></g></g></svg>