<svg version="1.1" xmlns="http://www.w3.org/2000/svg" xmlns:xlink="http://www.w3.org/1999/xlink" width="48.04548" height="65.5178" viewBox="0,0,48.04548,65.5178"><g transform="translate(-291.80594,-145.98464)"><g fill="#000000" stroke="none" stroke-width="0.5" stroke-miterlimit="10"><path d="M339.85143,158.0064c-1.44612,2.53071 -1.94276,6.01735 -3.96144,7.97162c-0.30786,0.29804 -0.65113,0.56044 -1.03856,0.77838c-0.69282,0.38972 -1.4395,0.66507 -2.21875,0.85815c-0.88294,0.25513 -1.81613,0.39185 -2.78125,0.39185c-0.0208,0 -0.04159,-0.00006 -0.06236,-0.00019c-2.11546,0.11303 -4.28066,-0.06634 -6.13852,0.00019c-0.77117,0.02762 1.41838,0.63337 2.04758,1.0801c1.06903,0.759 1.34138,0.82024 2.877,2.04861c2.72796,2.18215 5.90987,5.89413 6.65916,9.45212c2.50075,11.87478 0.69991,26.97895 -12.89743,30.37829c-12.99461,3.24865 -25.50917,-8.82053 -24.56119,-20.68204c0.05799,-0.72564 2.64513,-1.78123 3.23412,-2.15608c9.54638,-6.07564 15.87079,2.45834 15.24682,-0.12229c-0.09909,-0.40979 0.09991,-0.96819 -0.2172,-1.24602c-4.91551,-4.30667 -12.72466,-0.00532 -17.49072,-3.5868c-4.83172,-3.63082 -4.74717,-6.55975 -5.18654,-12.15717c-0.36514,-4.65171 -2.36167,-10.50606 -1.19378,-15.17761c3.80246,-15.20985 41.34977,-8.91437 42.7584,-6.44926z"/></g></g></svg>