<svg version="1.1" xmlns="http://www.w3.org/2000/svg" xmlns:xlink="http://www.w3.org/1999/xlink" width="539" height="275" viewBox="0,0,539,275"><g transform="translate(-50.5,-27.5)"><g stroke="none" stroke-miterlimit="10"><path d="M58,302.5c-4.14214,0 -7.5,-3.35786 -7.5,-7.5v-260c0,-4.14214 3.35786,-7.5 7.5,-7.5h524c4.14214,0 7.5,3.35786 7.5,7.5v260c0,4.14214 -3.35786,7.5 -7.5,7.5z" fill-opacity="0.51373" fill="#000000" stroke-width="0"/><path d="M360.99254,186.02075c-1.77804,3.35779 -3.44834,8.2446 -5.86544,11.28223c-1.10585,1.38964 -2.58258,2.44603 -3.75225,3.78243c-5.12628,5.85695 -9.64913,12.87948 -17.66957,15.35475c-1.49025,0.45997 -3.11717,0.12471 -4.67669,0.14263c-5.37277,0.06183 -10.53322,5.58803 -15.58425,3.33976c-1.95085,-0.86837 -9.20877,-1.96625 -11.11665,-2.92518c-1.57828,-0.79334 0.14892,-7.37057 -1.31628,-8.35715c-1.39353,-0.93848 -2.21128,-2.53417 -3.40641,-3.71494c-0.34982,-0.34563 -6.5393,-5.67292 -7.12513,-6.97464c-0.8564,-1.90281 -1.14271,-3.80059 -1.23142,-5.72361c-1.44268,0.8417 -2.74939,2.01163 -4.35567,2.45794c-1.52022,0.42245 -3.21672,0.46196 -4.73318,0.02662c-9.10406,-2.61413 -6.27406,-16.33453 -3.55869,-23.00357c1.91773,-4.70981 4.26944,-9.84196 7.4322,-13.9018c1.27542,-1.63719 3.18843,-2.67669 4.58614,-4.21086c0.75267,-0.82603 1.07241,-2.02704 1.93471,-2.73789c1.15909,-0.95567 2.65531,-1.406 3.97107,-2.1311c5.21201,-2.87236 10.12849,-5.20352 15.66737,-7.42119c7.64106,-3.08677 16.69975,-1.53438 24.49277,0.19031c1.12367,0.24869 2.34112,0.13498 3.40453,0.57546c3.86187,1.59966 5.30403,5.07744 8.37864,7.51278c0.83012,0.65741 5.83525,3.95945 6.86659,4.84888c3.44582,2.97202 4.92821,6.34857 7.42548,9.86659c0.19859,0.24177 0.38346,0.49622 0.56015,0.75791c1.34668,1.74974 2.91207,3.3405 4.09286,5.2051c0,0 1.77028,2.83242 -0.56445,4.90694c-0.44617,0.65168 -1.15479,1.23254 -2.28021,1.43394c-0.00423,3.1066 -1.22687,6.6463 -1.57621,9.41766zM320.56402,174.66286c2.17041,0 3.92999,-1.75949 3.92999,-3.93c0,-2.17051 -1.75958,-3.92999 -3.92999,-3.92999c-2.17051,0 -3.93,1.75949 -3.93,3.92999c0,2.17051 1.75949,3.93 3.93,3.93zM356.84079,184.33672c2.17051,0 3.92999,-1.75949 3.92999,-3.93c0,-2.17051 -1.75948,-3.92999 -3.92999,-3.92999c-2.1704,0 -3.92999,1.75948 -3.92999,3.92999c0,2.17051 1.75959,3.93 3.92999,3.93zM344.30013,196.36522l-0.31513,0.61025c-1.11161,1.11161 -1.93052,2.55995 -3.24482,3.42256c-1.54946,1.01687 -6.11413,0.26074 -7.68088,0.26325c-2.1855,0.00357 -6.18225,0.3602 -8.18727,-0.25079c-1.04276,-0.31765 -1.72112,-1.37225 -2.71117,-1.82855c-0.64693,-0.29826 -1.52055,0.02305 -2.10135,-0.38954c-0.53008,-0.37655 -0.47463,-1.23559 -0.89016,-1.7358c-1.45954,-1.75707 -5.66831,-4.60155 -6.01121,-7.40243c-0.12356,-1.00828 0.28883,-2.01101 0.43324,-3.01646c0,0 0.39112,-3.91049 -3.51938,-4.3015c-3.9105,-0.39112 -4.30162,3.51939 -4.30162,3.51939c-0.12419,1.68172 -0.66516,3.3844 -0.37277,5.04517c0.89688,5.09432 4.56948,7.58573 7.69325,11.13896c0.85433,0.97181 1.29239,2.33431 2.33452,3.10124c1.00597,0.7402 2.41155,0.69105 3.54171,1.2228c1.30853,0.61559 2.34804,1.80318 3.73811,2.20216c2.62482,0.7532 7.50607,0.55114 10.35411,0.55533c3.84836,0.00566 8.12293,0.62304 11.66684,-1.34898c0.49979,-0.27814 4.12073,-3.94309 4.8167,-4.63896l1.29721,-1.80822c0,0 2.17994,-3.26997 -1.09002,-5.44991c-3.26997,-2.17994 -5.44991,1.09002 -5.44991,1.09002z" fill="#ffffff" stroke-width="0"/><text transform="translate(261.79199,122.43977) scale(0.5,0.5)" font-size="40" xml:space="preserve" fill="#ffffff" stroke-width="1" font-family="&quot;Comic Sans MS&quot;, Sans Serif" font-weight="normal" text-anchor="start"><tspan x="0" dy="0">workin' on it</tspan></text></g></g></svg>