<svg version="1.1" xmlns="http://www.w3.org/2000/svg" xmlns:xlink="http://www.w3.org/1999/xlink" width="18.62288" height="17.95673" viewBox="0,0,18.62288,17.95673"><g transform="translate(-320.31222,-180.00014)"><g stroke="none" stroke-width="0.5" stroke-miterlimit="10"><path d="M332.05924,188.51592c0.21853,-0.0636 0.45143,-0.0666 0.67189,-0.00815c0.97283,-1.89948 2.56539,-5.10637 3.24441,-4.94359l1.20656,0.28924c0.15208,0.4965 0.23991,0.98071 0.2712,1.45171c0.21465,3.23053 -2.23019,5.84004 -4.84495,7.5381c0.15534,2.34 -4.32977,3.85532 -6.26298,2.77536l-0.23505,-0.22093c-0.50304,-0.4728 -0.52755,-1.26388 -0.05474,-1.76692c0.41293,-0.43934 1.06864,-0.51367 1.5632,-0.21047c0.13403,-0.11513 0.27349,-0.23005 0.41697,-0.34326c-0.06789,-1.85884 3.10822,-4.78049 4.02348,-4.56109z" fill="#ffae94"/><path d="M324.471,182.38352c0.22267,0.20928 0.35157,0.48093 0.38509,0.76235c1.46188,-0.53861 3.69199,-0.58046 6.96705,0.20464c0.41076,-0.11954 0.87226,-0.02497 1.20656,0.28924c0.50304,0.4728 0.52755,1.26388 0.05474,1.76692c-0.0321,0.03415 -0.06567,0.0661 -0.10051,0.09583c-0.42771,1.40484 -1.6108,2.76327 -2.67434,3.64147c-0.82573,0.68184 -4.11181,3.89781 -4.70367,3.72069c-1.62605,-0.48661 -4.46423,-5.68534 -2.51139,-8.4334c-0.12035,-0.0551 -0.23393,-0.13041 -0.33571,-0.22608c-0.05667,-0.05326 -0.10726,-0.11057 -0.15176,-0.17104c-1.16461,-1.33299 -0.90254,-1.54674 -0.12917,-1.25992c0.05511,-0.12043 0.13046,-0.2341 0.22619,-0.33595c0.4728,-0.50304 1.26388,-0.52755 1.76692,-0.05474z" fill="#fdff94"/><path d="" fill="#ffae94"/><path d="M324.90128,185.22279c0.50304,0.4728 0.52755,1.26388 0.05474,1.76692c-0.4728,0.50304 -1.26388,0.52755 -1.76692,0.05474c-0.50304,-0.4728 -0.52755,-1.26388 -0.05474,-1.76692c0.4728,-0.50304 1.26388,-0.52755 1.76692,-0.05474z" fill="#ff9494"/><path d="M331.31625,183.57873c0.50304,0.4728 0.52755,1.26388 0.05474,1.76692c-0.4728,0.50304 -1.26388,0.52755 -1.76692,0.05474c-0.50304,-0.4728 -0.52755,-1.26388 -0.05474,-1.76692c0.4728,-0.50304 1.26388,-0.52755 1.76692,-0.05474z" fill="#ff9494"/><path d="M330.18356,187.5314c0.50304,0.4728 0.52755,1.26388 0.05474,1.76692c-0.4728,0.50304 -1.26388,0.52755 -1.76692,0.05474c-0.50304,-0.4728 -0.52755,-1.26388 -0.05474,-1.76692c0.4728,-0.50304 1.26388,-0.52755 1.76692,-0.05474z" fill="#ff9494"/><path d="M326.29917,188.60261c0.50304,0.4728 0.52755,1.26388 0.05474,1.76692c-0.4728,0.50304 -1.26388,0.52755 -1.76692,0.05474c-0.50304,-0.4728 -0.52755,-1.26388 -0.05474,-1.76692c0.4728,-0.50304 1.26388,-0.52755 1.76692,-0.05474z" fill="#ff9494"/><path d="M326.79714,182.57769c0.50304,0.4728 0.52755,1.26388 0.05474,1.76692c-0.4728,0.50304 -1.26388,0.52755 -1.76692,0.05474c-0.50304,-0.4728 -0.52755,-1.26388 -0.05474,-1.76692c0.4728,-0.50304 1.26388,-0.52755 1.76692,-0.05474z" fill="#ff9494"/><path d="M328.15115,185.7687c0.50304,0.4728 0.52755,1.26388 0.05474,1.76692c-0.4728,0.50304 -1.26388,0.52755 -1.76692,0.05474c-0.50304,-0.4728 -0.52755,-1.26388 -0.05474,-1.76692c0.4728,-0.50304 1.26388,-0.52755 1.76692,-0.05474z" fill="#ff9494"/><path d="M326.21165,191.88139c2.01228,-2.17841 5.50308,-4.51965 6.66202,-7.3379c-1.99367,-0.32147 -4.00789,-0.44373 -6.09578,-0.93388c-6.25626,-1.4687 -3.26437,-0.44768 -1.73799,5.49342c0.20988,0.82731 0.42337,1.95363 0.69628,3.06342zM327.78993,193.82021l-1.2156,0.75847c0,0 -0.01904,0.01167 -0.05357,0.02935c0.11893,0.26284 0.24693,0.50236 0.38546,0.71037c0.57242,0.85953 3.5174,-1.53285 3.87911,-1.80188c2.59268,-1.9284 4.5016,-4.65971 5.33241,-7.75793l0.13003,-0.37535c-0.30593,-0.11213 -0.61164,-0.21195 -0.91731,-0.3015c-1.31154,3.46793 -5.01671,6.08995 -7.54053,8.73846zM338.6862,184.25811c0.42259,0.50982 0.17911,1.20656 0.17911,1.20656l-0.3345,0.94741c-1.16344,4.25868 -4.05055,7.88754 -7.80568,10.23944c-1.76803,1.10735 -3.78899,2.08372 -5.62422,0.3963c-1.34154,-1.23349 -2.03566,-5.57861 -2.48351,-7.32715c-0.40408,-1.59866 -3.20494,-7.56746 -2.0112,-9.07494c1.71831,-2.16991 15.05619,1.74574 17.31975,2.7156c0,0 0.64332,0.2763 0.76025,0.89679z" fill="#000000"/></g></g></svg>