<svg version="1.1" xmlns="http://www.w3.org/2000/svg" xmlns:xlink="http://www.w3.org/1999/xlink" width="50.27409" height="64.26489" viewBox="0,0,50.27409,64.26489"><g transform="translate(-293.1756,-144.96774)"><g fill="#000000" stroke="none" stroke-width="0.5" stroke-miterlimit="10"><path d="M297.51951,174.26562l0.02112,-0.3063l-0.1987,-0.26144l-0.35815,-0.83569l-0.68433,-1.23179l-0.4421,-1.64783l-0.68027,-1.56461l-0.18654,-1.11927l0.03371,-0.42133l-0.06031,-0.22481l0.09021,-0.14896l0.00304,-0.03805l-0.20271,-0.81085v-2.23853l0.01378,-0.05514l-0.08933,-0.15923l0.72316,-2.37609l0.60238,-2.40954l0.15852,-0.09058l0.01655,-0.05437l1.11927,-1.86544l0.37121,-0.37121l0.20372,-0.48383l0.55963,-0.74618l0.90793,-0.73769l0.69023,-0.94452l1.11927,-0.93272l0.09259,-0.0447l0.06231,-0.08178l0.93272,-0.74618l0.14581,-0.06683l0.10114,-0.12448l0.62121,-0.46591l0.81074,-0.64859l0.61985,-0.2841l0.48214,-0.48214l0.93272,-0.55963l1.05357,-0.32065l0.92911,-0.59125l0.99109,-0.33036l1.92501,-0.7l0.35824,-0.03732l0.31198,-0.17999l2.61162,-0.74618l0.84775,-0.02826l0.79514,-0.29534l1.52364,-0.16929l1.15117,-0.16445l0.71594,0.07406l0.69827,-0.17457h2.79816l0.39033,0.09758l0.30305,-0.15152l2.12133,0.75762l2.1853,0.54632l0.1681,0.29417l0.3789,0.13532l0.36164,0.24109l0.72867,0.4372l0.87049,0.87049l0.41091,0.24654l0.09654,0.00536l0.09275,0.10821l0.45542,0.27325l0.93272,0.93272l0.55963,0.93272l1.11927,1.11927l0.63337,1.05562l0.87049,0.87049l1.11927,1.86544l0.43058,1.41475l0.69592,1.30485l0.18654,0.74618v0.52497l0.19807,0.48617l0.18654,1.30581l-0.07406,0.71594l0.17457,0.69827v3.54434l-0.29857,1.1943v0.51059l0.00103,0.00183l-0.00103,0.00338v0.71525l-0.37309,1.49235l-0.69592,1.30485l-0.43058,1.41475l-0.55963,0.93272l-0.17242,0.17242l-0.08201,0.22963l-0.74618,1.11927l-0.63033,0.57302l1.88069,1.07468l1.61563,0.08976l1.01865,1.18842l0.29757,0.05951l0.33765,0.53059l1.50597,0.86055l0.54524,2.18095l0.02212,0.02581l0.37309,0.74618l0.03684,0.16579l0.13263,0.39789l0.02341,0.30427l0.04602,0.20711l0.51825,0.97172l0.37309,1.49235v1.23106l0.29857,1.1943v2.98471l-0.09758,0.39033l0.15152,0.30305l-0.75762,2.12133l-0.16293,0.6517l-0.01965,0.25551l-0.17689,0.53067l-0.18686,0.74742l-0.07694,0.04397l-0.30549,0.91648l-0.86303,1.35619l-0.18923,0.44942l0.01967,0.28523l-0.26035,0.28639l-0.19389,0.4605l-0.55963,0.74618l-0.48493,0.394l-0.2356,0.37023l-0.19487,0.03897l-0.00515,0.09277l-0.56909,0.48779l-0.37201,0.62002l-0.37309,0.37309l-0.10232,0.06139l-0.00942,0.06748l-0.3343,0.24144l-0.11359,0.18932l-0.37309,0.37309l-0.62002,0.37201l-0.48779,0.56909l-0.40853,0.0227l-0.32019,0.15167l-1.52063,1.09823l-0.93272,0.37309l-0.02773,0.00378l-0.1018,0.06108l-0.11538,-0.03147l-0.67175,0.0916l-0.83609,0.39604l-0.69938,0.13988l-0.51532,0.12883h-0.24383l-0.22036,0.10438l-1.6321,0.32642l-1.2615,0.31537h-1.23106l-1.1943,0.29857h-3.60522l-1.36916,0.13692l-0.50242,-0.07353l-0.49261,0.12315h-3.17125l-1.49235,-0.37309h-0.37309l-0.79272,-0.19818l-1.05575,-0.14397l-0.21654,-0.08662l-1.09727,-0.08441l-0.1394,-0.04647h-0.05612l-0.39033,-0.09758l-0.30305,0.15152l-2.12133,-0.75762l-2.1853,-0.54632l-0.13035,-0.22811l-0.3681,-0.18405l-0.04855,-0.01734l-0.04162,-0.02774l-0.18933,-0.09466l-0.16566,-0.142l-0.16303,-0.10869l-0.12787,-0.14065l-0.76395,-0.65482l-1.37842,-0.82705l-0.93272,-0.93272l-0.27325,-0.45542l-0.10821,-0.09275l-0.00454,-0.08177l-0.54292,-0.44113l-0.55963,-0.74618l-0.14024,-0.33306l-0.30734,-0.26343l-0.27119,-0.0904l-0.11328,-0.23915l-0.48593,-0.41651l-0.02767,-0.49813l-0.53134,-0.6199l-0.18654,-0.37309l-0.28975,-1.30387l-0.57179,-1.2071l-0.25099,-1.25495l-0.13802,-0.41406l-0.6149,-1.22979l-0.28975,-1.30387l-0.57179,-1.2071l-0.18654,-0.93272l0.04738,-0.99489l-0.24157,-0.96628v-3.91743l0.38988,-1.55951l0.12329,-1.60277l0.37309,-1.11927l0.16144,-0.25369l0.04063,-0.29794l0.37309,-0.93272l0.61244,-0.848l0.35182,-0.9851l0.37309,-0.55963l0.73699,-0.66999l0.51244,-0.85407l0.32672,-0.32672zM321.58181,184.41684l-0.74916,0.14536l-0.65803,0.38646l-3.17125,0.93272l-0.13064,0.00537l-0.11439,0.06333l-2.79816,0.74618l-0.0712,0.00111l-0.06321,0.02897l-0.01686,0.00899l-0.00607,0.00152l-0.24664,0.11304l-0.20692,0.1983l0.046,0.20702l0.38642,0.60724l0.36894,1.10682l0.39519,0.0304l0.69903,0.23301h1.7959l1.36916,-0.13692l0.50242,0.07353l0.49261,-0.12315h2.87292l0.29805,-0.07451h0.24383l0.1377,-0.06522l-0.05951,-0.77361l-0.06416,-0.28872l-0.55728,-2.22912v-0.27864l-0.06231,-0.28038l0.06231,-0.09346v-0.0937l0.21965,-0.87862z"/></g></g></svg>