<svg version="1.1" xmlns="http://www.w3.org/2000/svg" xmlns:xlink="http://www.w3.org/1999/xlink" width="44.49712" height="59.55883" viewBox="0,0,44.49712,59.55883"><g transform="translate(-294.64503,-148.19295)"><g fill="#000000" stroke="none" stroke-width="0.5" stroke-miterlimit="10"><path d="M334.90682,166.2988c-0.81238,0.59143 -1.67898,1.00023 -2.57853,1.29782c-0.62999,0.22847 -1.28947,0.39544 -1.97117,0.49364c-2.95014,0.55199 -6.07643,0.50563 -8.71162,2.09827c-1.78038,1.07601 -6.32874,3.64434 -4.4006,4.42526c7.17531,2.90606 12.45446,2.42403 17.62564,9.91859c7.76853,11.25887 -5.81028,23.64911 -16.39831,23.20795c-34.465,-1.43604 -31.64212,-54.66475 9.12783,-59.46121c0.43149,-0.05684 0.87164,-0.08617 1.31865,-0.08617c5.05181,0 9.22869,3.74602 9.90443,8.61184c0.89256,3.15381 0.0121,6.63406 -3.91631,9.49402z"/></g></g></svg>