<svg version="1.1" xmlns="http://www.w3.org/2000/svg" xmlns:xlink="http://www.w3.org/1999/xlink" width="56.47212" height="74.92288" viewBox="0,0,56.47212,74.92288"><g transform="translate(-290.46668,-140.01526)"><g fill="#000000" stroke="none" stroke-width="0.5" stroke-miterlimit="10"><path d="M312.12048,160.06454c0.00298,0.0537 0.00771,0.10739 0.01406,0.16106c0.58495,0.90311 1.02821,1.90654 1.29829,2.9788c0.19749,0.78407 0.30239,1.60494 0.30239,2.45032c0,5.52285 -4.47715,10 -10,10c-2.0586,0 -3.97191,-0.62204 -5.56223,-1.68841c-8.5097,-5.22415 -12.64972,-24.42284 1.97785,-31.46549c3.69464,-1.77884 8.10037,-2.26488 12.1581,-2.42071c4.66353,-0.1791 13.64545,-0.2251 17.53631,3.19854c7.08047,6.23025 5.55437,17.43112 6.67922,25.79696c0.29654,2.20547 17.83347,13.11992 6.74054,27.88185c-7.38347,9.82556 -27.32564,24.33205 -41.01723,14.95038c-6.90527,-4.73159 -6.07798,-18.53081 3.91312,-19.00658c6.25408,-0.29781 16.11486,2.5754 19.41292,-5.6031c0.90232,-2.23757 -12.1779,-5.53153 -12.72036,-10.5973c-0.50256,-4.69313 9.1342,-17.40157 -0.73968,-16.64204z"/></g></g></svg>